<?xml version="1.0" ?><svg viewBox="0 0 64 64" xmlns="http://www.w3.org/2000/svg"><title/><g data-name="24-Spreading" id="_24-Spreading"><circle cx="32" cy="21" r="4" style="fill:none;stroke:#000;stroke-linejoin:round;stroke-width:2px"/><path d="M32,27a5,5,0,0,0-5,5v5a2,2,0,0,0,2,2v6a2,2,0,0,0,2,2h2a2,2,0,0,0,2-2V39a2,2,0,0,0,2-2V32A5,5,0,0,0,32,27Z" style="fill:none;stroke:#000;stroke-linejoin:round;stroke-width:2px"/><circle cx="58" cy="40" r="3" style="fill:none;stroke:#000;stroke-linejoin:round;stroke-width:2px"/><path d="M58,43a5,5,0,0,0-5,5v5a2,2,0,0,0,2,2v6a2,2,0,0,0,2,2h2a2,2,0,0,0,2-2V55a2,2,0,0,0,2-2V48A5,5,0,0,0,58,43Z" style="fill:none;stroke:#000;stroke-linejoin:round;stroke-width:2px"/><circle cx="58" cy="4" r="3" style="fill:none;stroke:#000;stroke-linejoin:round;stroke-width:2px"/><path d="M58,7a5,5,0,0,0-5,5v5a2,2,0,0,0,2,2v6a2,2,0,0,0,2,2h2a2,2,0,0,0,2-2V19a2,2,0,0,0,2-2V12A5,5,0,0,0,58,7Z" style="fill:none;stroke:#000;stroke-linejoin:round;stroke-width:2px"/><circle cx="6" cy="40" r="3" style="fill:none;stroke:#000;stroke-linejoin:round;stroke-width:2px"/><path d="M6,43a5,5,0,0,0-5,5v5a2,2,0,0,0,2,2v6a2,2,0,0,0,2,2H7a2,2,0,0,0,2-2V55a2,2,0,0,0,2-2V48A5,5,0,0,0,6,43Z" style="fill:none;stroke:#000;stroke-linejoin:round;stroke-width:2px"/><circle cx="6" cy="4" r="3" style="fill:none;stroke:#000;stroke-linejoin:round;stroke-width:2px"/><path d="M6,7a5,5,0,0,0-5,5v5a2,2,0,0,0,2,2v6a2,2,0,0,0,2,2H7a2,2,0,0,0,2-2V19a2,2,0,0,0,2-2V12A5,5,0,0,0,6,7Z" style="fill:none;stroke:#000;stroke-linejoin:round;stroke-width:2px"/><polyline points="18 13 14 13 24 27" style="fill:none;stroke:#000;stroke-linejoin:round;stroke-width:2px"/><polyline points="46 13 50 13 40 27" style="fill:none;stroke:#000;stroke-linejoin:round;stroke-width:2px"/><polyline points="46 55 50 55 40 41" style="fill:none;stroke:#000;stroke-linejoin:round;stroke-width:2px"/><polyline points="18 55 14 55 24 41" style="fill:none;stroke:#000;stroke-linejoin:round;stroke-width:2px"/><line style="fill:none;stroke:#000;stroke-linejoin:round;stroke-width:2px" x1="50" x2="50" y1="51" y2="55"/><line style="fill:none;stroke:#000;stroke-linejoin:round;stroke-width:2px" x1="14" x2="14" y1="51" y2="55"/><line style="fill:none;stroke:#000;stroke-linejoin:round;stroke-width:2px" x1="50" x2="50" y1="13" y2="17"/><line style="fill:none;stroke:#000;stroke-linejoin:round;stroke-width:2px" x1="14" x2="14" y1="13" y2="17"/></g></svg>